<mxfile host="app.diagrams.net" modified="2024-05-15T06:58:51.801Z" agent="Mozilla/5.0 (Windows NT 10.0; Win64; x64) AppleWebKit/537.36 (KHTML, like Gecko) Chrome/122.0.0.0 Safari/537.36 Edg/122.0.0.0" etag="5uuvPoezck9qUhkcxgNe" version="24.3.1" type="github">
  <diagram name="第 1 页" id="LZ3V6zMkVi97bei1aKP2">
    <mxGraphModel dx="1013" dy="569" grid="1" gridSize="10" guides="1" tooltips="1" connect="1" arrows="1" fold="1" page="1" pageScale="1" pageWidth="827" pageHeight="1169" math="0" shadow="0">
      <root>
        <mxCell id="0" />
        <mxCell id="1" parent="0" />
        <mxCell id="KBZhlKwedzXI5FQdUWbd-1" value="" style="shape=or;whiteSpace=wrap;html=1;rotation=-90;strokeWidth=2;fillColor=#dae8fc;strokeColor=#6c8ebf;" vertex="1" parent="1">
          <mxGeometry x="60" y="90" width="60" height="80" as="geometry" />
        </mxCell>
        <mxCell id="KBZhlKwedzXI5FQdUWbd-2" value="" style="shape=or;whiteSpace=wrap;html=1;rotation=-90;strokeWidth=2;fillColor=#d5e8d4;strokeColor=#82b366;" vertex="1" parent="1">
          <mxGeometry x="140" y="90" width="60" height="80" as="geometry" />
        </mxCell>
        <mxCell id="KBZhlKwedzXI5FQdUWbd-7" value="" style="shape=crossbar;whiteSpace=wrap;html=1;rounded=1;strokeWidth=2;" vertex="1" parent="1">
          <mxGeometry x="45" y="150" width="169" height="20" as="geometry" />
        </mxCell>
        <mxCell id="KBZhlKwedzXI5FQdUWbd-8" value="&lt;font style=&quot;font-size: 10px;&quot;&gt;&lt;b&gt;915MHz&lt;/b&gt;&lt;/font&gt;" style="text;strokeColor=none;align=center;fillColor=none;html=1;verticalAlign=middle;whiteSpace=wrap;rounded=0;" vertex="1" parent="1">
          <mxGeometry x="110.5" y="170" width="40" height="20" as="geometry" />
        </mxCell>
        <mxCell id="KBZhlKwedzXI5FQdUWbd-9" value="&lt;font style=&quot;font-size: 10px;&quot;&gt;&lt;b&gt;915.5MHz&lt;/b&gt;&lt;/font&gt;" style="text;strokeColor=none;align=center;fillColor=none;html=1;verticalAlign=middle;whiteSpace=wrap;rounded=0;" vertex="1" parent="1">
          <mxGeometry x="198" y="170" width="40" height="20" as="geometry" />
        </mxCell>
        <mxCell id="KBZhlKwedzXI5FQdUWbd-10" value="&lt;font style=&quot;font-size: 10px;&quot;&gt;&lt;b&gt;914.5MHz&lt;/b&gt;&lt;/font&gt;" style="text;strokeColor=none;align=center;fillColor=none;html=1;verticalAlign=middle;whiteSpace=wrap;rounded=0;" vertex="1" parent="1">
          <mxGeometry x="30" y="170" width="40" height="20" as="geometry" />
        </mxCell>
        <mxCell id="KBZhlKwedzXI5FQdUWbd-11" value="" style="shape=or;whiteSpace=wrap;html=1;rotation=-90;strokeWidth=2;fillColor=#dae8fc;strokeColor=#6c8ebf;" vertex="1" parent="1">
          <mxGeometry x="60" y="190" width="60" height="80" as="geometry" />
        </mxCell>
        <mxCell id="KBZhlKwedzXI5FQdUWbd-14" value="&lt;font style=&quot;font-size: 10px;&quot;&gt;&lt;b&gt;915MHz&lt;/b&gt;&lt;/font&gt;" style="text;strokeColor=none;align=center;fillColor=none;html=1;verticalAlign=middle;whiteSpace=wrap;rounded=0;" vertex="1" parent="1">
          <mxGeometry x="110.5" y="270" width="40" height="20" as="geometry" />
        </mxCell>
        <mxCell id="KBZhlKwedzXI5FQdUWbd-15" value="&lt;font style=&quot;font-size: 10px;&quot;&gt;&lt;b&gt;915.5MHz&lt;/b&gt;&lt;/font&gt;" style="text;strokeColor=none;align=center;fillColor=none;html=1;verticalAlign=middle;whiteSpace=wrap;rounded=0;" vertex="1" parent="1">
          <mxGeometry x="198" y="270" width="40" height="20" as="geometry" />
        </mxCell>
        <mxCell id="KBZhlKwedzXI5FQdUWbd-16" value="&lt;font style=&quot;font-size: 10px;&quot;&gt;&lt;b&gt;914.5MHz&lt;/b&gt;&lt;/font&gt;" style="text;strokeColor=none;align=center;fillColor=none;html=1;verticalAlign=middle;whiteSpace=wrap;rounded=0;" vertex="1" parent="1">
          <mxGeometry x="30" y="270" width="40" height="20" as="geometry" />
        </mxCell>
        <mxCell id="KBZhlKwedzXI5FQdUWbd-17" value="" style="shape=or;whiteSpace=wrap;html=1;rotation=-90;strokeWidth=2;fillColor=#f8cecc;strokeColor=#b85450;" vertex="1" parent="1">
          <mxGeometry x="99.5" y="190" width="60" height="80" as="geometry" />
        </mxCell>
        <mxCell id="KBZhlKwedzXI5FQdUWbd-12" value="" style="shape=or;whiteSpace=wrap;html=1;rotation=-90;strokeWidth=2;fillColor=#d5e8d4;strokeColor=#82b366;" vertex="1" parent="1">
          <mxGeometry x="140" y="190" width="60" height="80" as="geometry" />
        </mxCell>
        <mxCell id="KBZhlKwedzXI5FQdUWbd-18" value="&lt;font style=&quot;font-size: 10px;&quot;&gt;&lt;b&gt;CH 1&lt;/b&gt;&lt;/font&gt;" style="text;strokeColor=none;align=center;fillColor=none;html=1;verticalAlign=middle;whiteSpace=wrap;rounded=0;" vertex="1" parent="1">
          <mxGeometry x="70" y="120" width="40" height="20" as="geometry" />
        </mxCell>
        <mxCell id="KBZhlKwedzXI5FQdUWbd-19" value="&lt;font style=&quot;font-size: 10px;&quot;&gt;&lt;b&gt;CH 2&lt;/b&gt;&lt;/font&gt;" style="text;strokeColor=none;align=center;fillColor=none;html=1;verticalAlign=middle;whiteSpace=wrap;rounded=0;" vertex="1" parent="1">
          <mxGeometry x="150.5" y="120" width="40" height="20" as="geometry" />
        </mxCell>
        <mxCell id="KBZhlKwedzXI5FQdUWbd-20" value="&lt;font style=&quot;font-size: 10px;&quot;&gt;&lt;b&gt;CH 1&lt;/b&gt;&lt;/font&gt;" style="text;strokeColor=none;align=center;fillColor=none;html=1;verticalAlign=middle;whiteSpace=wrap;rounded=0;" vertex="1" parent="1">
          <mxGeometry x="51" y="220" width="40" height="20" as="geometry" />
        </mxCell>
        <mxCell id="KBZhlKwedzXI5FQdUWbd-22" value="&lt;font style=&quot;font-size: 10px;&quot;&gt;&lt;b&gt;CH 3&lt;/b&gt;&lt;/font&gt;" style="text;strokeColor=none;align=center;fillColor=none;html=1;verticalAlign=middle;whiteSpace=wrap;rounded=0;" vertex="1" parent="1">
          <mxGeometry x="91" y="220" width="40" height="20" as="geometry" />
        </mxCell>
        <mxCell id="KBZhlKwedzXI5FQdUWbd-21" value="&lt;font style=&quot;font-size: 10px;&quot;&gt;&lt;b&gt;CH 2&lt;/b&gt;&lt;/font&gt;" style="text;strokeColor=none;align=center;fillColor=none;html=1;verticalAlign=middle;whiteSpace=wrap;rounded=0;" vertex="1" parent="1">
          <mxGeometry x="150.5" y="220" width="40" height="20" as="geometry" />
        </mxCell>
        <mxCell id="KBZhlKwedzXI5FQdUWbd-24" value="" style="rounded=0;whiteSpace=wrap;html=1;fillColor=#EDF4FF;strokeColor=none;container=0;" vertex="1" parent="1">
          <mxGeometry x="330" y="111" width="220" height="80" as="geometry" />
        </mxCell>
        <mxCell id="KBZhlKwedzXI5FQdUWbd-39" value="" style="rounded=0;whiteSpace=wrap;html=1;fillColor=#F8E0DF;strokeColor=none;container=0;" vertex="1" parent="1">
          <mxGeometry x="330" y="150" width="220" height="80" as="geometry" />
        </mxCell>
        <mxCell id="KBZhlKwedzXI5FQdUWbd-63" value="" style="endArrow=none;html=1;rounded=0;strokeWidth=3;strokeColor=#6c8ebf;entryX=0.128;entryY=-0.007;entryDx=0;entryDy=0;entryPerimeter=0;" edge="1" parent="1">
          <mxGeometry width="50" height="50" relative="1" as="geometry">
            <mxPoint x="411" y="191.5" as="sourcePoint" />
            <mxPoint x="451" y="110.5" as="targetPoint" />
          </mxGeometry>
        </mxCell>
        <mxCell id="KBZhlKwedzXI5FQdUWbd-64" value="" style="endArrow=none;html=1;rounded=0;strokeWidth=3;strokeColor=#6c8ebf;entryX=0.128;entryY=-0.007;entryDx=0;entryDy=0;entryPerimeter=0;" edge="1" parent="1">
          <mxGeometry width="50" height="50" relative="1" as="geometry">
            <mxPoint x="371" y="192" as="sourcePoint" />
            <mxPoint x="411" y="111" as="targetPoint" />
          </mxGeometry>
        </mxCell>
        <mxCell id="KBZhlKwedzXI5FQdUWbd-65" value="" style="endArrow=none;html=1;rounded=0;strokeWidth=3;strokeColor=#6c8ebf;entryX=0.128;entryY=-0.007;entryDx=0;entryDy=0;entryPerimeter=0;" edge="1" parent="1">
          <mxGeometry width="50" height="50" relative="1" as="geometry">
            <mxPoint x="331" y="190.5" as="sourcePoint" />
            <mxPoint x="371" y="109.5" as="targetPoint" />
          </mxGeometry>
        </mxCell>
        <mxCell id="KBZhlKwedzXI5FQdUWbd-31" value="" style="endArrow=none;html=1;rounded=0;strokeWidth=3;strokeColor=#6c8ebf;entryX=0.128;entryY=-0.007;entryDx=0;entryDy=0;entryPerimeter=0;" edge="1" parent="1">
          <mxGeometry width="50" height="50" relative="1" as="geometry">
            <mxPoint x="451" y="191" as="sourcePoint" />
            <mxPoint x="491" y="110" as="targetPoint" />
          </mxGeometry>
        </mxCell>
        <mxCell id="KBZhlKwedzXI5FQdUWbd-32" value="" style="endArrow=none;html=1;rounded=0;strokeWidth=3;strokeColor=#6c8ebf;entryX=0.257;entryY=-0.004;entryDx=0;entryDy=0;entryPerimeter=0;" edge="1" parent="1">
          <mxGeometry width="50" height="50" relative="1" as="geometry">
            <mxPoint x="491" y="191" as="sourcePoint" />
            <mxPoint x="531" y="111" as="targetPoint" />
          </mxGeometry>
        </mxCell>
        <mxCell id="KBZhlKwedzXI5FQdUWbd-66" value="" style="rounded=0;whiteSpace=wrap;html=1;fillColor=#DFE8DF;strokeColor=none;container=0;" vertex="1" parent="1">
          <mxGeometry x="331" y="191" width="219" height="80" as="geometry" />
        </mxCell>
        <mxCell id="KBZhlKwedzXI5FQdUWbd-67" value="" style="endArrow=none;html=1;rounded=0;strokeWidth=3;strokeColor=#82b366;entryX=0.128;entryY=-0.007;entryDx=0;entryDy=0;entryPerimeter=0;exitX=0.008;exitY=0.972;exitDx=0;exitDy=0;exitPerimeter=0;fillColor=#d5e8d4;" edge="1" parent="1">
          <mxGeometry width="50" height="50" relative="1" as="geometry">
            <mxPoint x="344.63199999999995" y="272.76" as="sourcePoint" />
            <mxPoint x="384.11199999999997" y="194.44000000000005" as="targetPoint" />
          </mxGeometry>
        </mxCell>
        <mxCell id="KBZhlKwedzXI5FQdUWbd-68" value="" style="endArrow=none;html=1;rounded=0;strokeWidth=3;strokeColor=#82b366;entryX=0.257;entryY=-0.004;entryDx=0;entryDy=0;entryPerimeter=0;exitX=0.127;exitY=0.984;exitDx=0;exitDy=0;exitPerimeter=0;fillColor=#d5e8d4;" edge="1" parent="1">
          <mxGeometry width="50" height="50" relative="1" as="geometry">
            <mxPoint x="385.783" y="272.72" as="sourcePoint" />
            <mxPoint x="428.5529999999999" y="193.67999999999995" as="targetPoint" />
          </mxGeometry>
        </mxCell>
        <mxCell id="KBZhlKwedzXI5FQdUWbd-69" value="" style="endArrow=none;html=1;rounded=0;strokeWidth=3;strokeColor=#82b366;entryX=0.385;entryY=0.005;entryDx=0;entryDy=0;entryPerimeter=0;exitX=0.264;exitY=0.979;exitDx=0;exitDy=0;exitPerimeter=0;fillColor=#d5e8d4;" edge="1" parent="1">
          <mxGeometry width="50" height="50" relative="1" as="geometry">
            <mxPoint x="430.856" y="272.32000000000005" as="sourcePoint" />
            <mxPoint x="470.6650000000001" y="194.39999999999998" as="targetPoint" />
          </mxGeometry>
        </mxCell>
        <mxCell id="KBZhlKwedzXI5FQdUWbd-70" value="" style="endArrow=none;html=1;rounded=0;strokeWidth=3;strokeColor=#82b366;entryX=0.128;entryY=-0.007;entryDx=0;entryDy=0;entryPerimeter=0;fillColor=#d5e8d4;" edge="1" parent="1">
          <mxGeometry width="50" height="50" relative="1" as="geometry">
            <mxPoint x="470" y="273" as="sourcePoint" />
            <mxPoint x="510" y="192" as="targetPoint" />
          </mxGeometry>
        </mxCell>
        <mxCell id="KBZhlKwedzXI5FQdUWbd-71" value="" style="endArrow=none;html=1;rounded=0;strokeWidth=3;strokeColor=#82b366;entryX=0.257;entryY=-0.004;entryDx=0;entryDy=0;entryPerimeter=0;fillColor=#d5e8d4;" edge="1" parent="1">
          <mxGeometry width="50" height="50" relative="1" as="geometry">
            <mxPoint x="510" y="273" as="sourcePoint" />
            <mxPoint x="550" y="193" as="targetPoint" />
          </mxGeometry>
        </mxCell>
        <mxCell id="KBZhlKwedzXI5FQdUWbd-40" value="" style="endArrow=none;html=1;rounded=0;strokeWidth=3;strokeColor=#B95450;entryX=0.128;entryY=-0.007;entryDx=0;entryDy=0;entryPerimeter=0;exitX=0.008;exitY=0.972;exitDx=0;exitDy=0;exitPerimeter=0;" edge="1" parent="1">
          <mxGeometry width="50" height="50" relative="1" as="geometry">
            <mxPoint x="338.63199999999995" y="231.76" as="sourcePoint" />
            <mxPoint x="378.11199999999997" y="153.44000000000005" as="targetPoint" />
          </mxGeometry>
        </mxCell>
        <mxCell id="KBZhlKwedzXI5FQdUWbd-41" value="" style="endArrow=none;html=1;rounded=0;strokeWidth=3;strokeColor=#b95450;entryX=0.257;entryY=-0.004;entryDx=0;entryDy=0;entryPerimeter=0;exitX=0.127;exitY=0.984;exitDx=0;exitDy=0;exitPerimeter=0;" edge="1" parent="1">
          <mxGeometry width="50" height="50" relative="1" as="geometry">
            <mxPoint x="377.783" y="231.72000000000003" as="sourcePoint" />
            <mxPoint x="420.5529999999999" y="152.67999999999995" as="targetPoint" />
          </mxGeometry>
        </mxCell>
        <mxCell id="KBZhlKwedzXI5FQdUWbd-42" value="" style="endArrow=none;html=1;rounded=0;strokeWidth=3;strokeColor=#B95450;entryX=0.385;entryY=0.005;entryDx=0;entryDy=0;entryPerimeter=0;exitX=0.264;exitY=0.979;exitDx=0;exitDy=0;exitPerimeter=0;" edge="1" parent="1">
          <mxGeometry width="50" height="50" relative="1" as="geometry">
            <mxPoint x="424.856" y="231.32000000000005" as="sourcePoint" />
            <mxPoint x="464.6650000000001" y="153.39999999999998" as="targetPoint" />
          </mxGeometry>
        </mxCell>
        <mxCell id="KBZhlKwedzXI5FQdUWbd-43" value="" style="endArrow=none;html=1;rounded=0;strokeWidth=3;strokeColor=#B95450;entryX=0.128;entryY=-0.007;entryDx=0;entryDy=0;entryPerimeter=0;" edge="1" parent="1">
          <mxGeometry width="50" height="50" relative="1" as="geometry">
            <mxPoint x="460" y="232" as="sourcePoint" />
            <mxPoint x="500" y="151" as="targetPoint" />
          </mxGeometry>
        </mxCell>
        <mxCell id="KBZhlKwedzXI5FQdUWbd-44" value="" style="endArrow=none;html=1;rounded=0;strokeWidth=3;strokeColor=#B95450;entryX=0.257;entryY=-0.004;entryDx=0;entryDy=0;entryPerimeter=0;" edge="1" parent="1">
          <mxGeometry width="50" height="50" relative="1" as="geometry">
            <mxPoint x="504" y="232" as="sourcePoint" />
            <mxPoint x="544" y="152" as="targetPoint" />
          </mxGeometry>
        </mxCell>
        <mxCell id="KBZhlKwedzXI5FQdUWbd-62" value="" style="endArrow=classic;html=1;rounded=0;strokeWidth=2;" edge="1" parent="1">
          <mxGeometry width="50" height="50" relative="1" as="geometry">
            <mxPoint x="331" y="280" as="sourcePoint" />
            <mxPoint x="331" y="70" as="targetPoint" />
          </mxGeometry>
        </mxCell>
        <mxCell id="KBZhlKwedzXI5FQdUWbd-61" value="" style="endArrow=classic;html=1;rounded=0;strokeWidth=2;" edge="1" parent="1">
          <mxGeometry width="50" height="50" relative="1" as="geometry">
            <mxPoint x="320" y="270" as="sourcePoint" />
            <mxPoint x="580" y="271" as="targetPoint" />
          </mxGeometry>
        </mxCell>
        <mxCell id="KBZhlKwedzXI5FQdUWbd-75" value="&lt;b&gt;BW&lt;/b&gt;" style="text;strokeColor=none;align=center;fillColor=none;html=1;verticalAlign=middle;whiteSpace=wrap;rounded=0;" vertex="1" parent="1">
          <mxGeometry x="271" y="100" width="60" height="30" as="geometry" />
        </mxCell>
        <mxCell id="KBZhlKwedzXI5FQdUWbd-76" value="&lt;b&gt;-BW&lt;/b&gt;" style="text;strokeColor=none;align=center;fillColor=none;html=1;verticalAlign=middle;whiteSpace=wrap;rounded=0;" vertex="1" parent="1">
          <mxGeometry x="271" y="260" width="60" height="30" as="geometry" />
        </mxCell>
        <mxCell id="KBZhlKwedzXI5FQdUWbd-77" value="&lt;font face=&quot;Times New Roman&quot; style=&quot;font-size: 16px;&quot;&gt;t&lt;/font&gt;" style="text;strokeColor=none;align=center;fillColor=none;html=1;verticalAlign=middle;whiteSpace=wrap;rounded=0;" vertex="1" parent="1">
          <mxGeometry x="530" y="273" width="60" height="30" as="geometry" />
        </mxCell>
        <mxCell id="KBZhlKwedzXI5FQdUWbd-78" value="&lt;font face=&quot;Times New Roman&quot; style=&quot;font-size: 16px;&quot;&gt;f&lt;/font&gt;" style="text;strokeColor=none;align=center;fillColor=none;html=1;verticalAlign=middle;whiteSpace=wrap;rounded=0;" vertex="1" parent="1">
          <mxGeometry x="280" y="60" width="60" height="30" as="geometry" />
        </mxCell>
        <mxCell id="KBZhlKwedzXI5FQdUWbd-13" value="" style="shape=crossbar;whiteSpace=wrap;html=1;rounded=1;strokeWidth=2;" vertex="1" parent="1">
          <mxGeometry x="45" y="250" width="169" height="20" as="geometry" />
        </mxCell>
        <mxCell id="KBZhlKwedzXI5FQdUWbd-79" value="" style="rounded=0;whiteSpace=wrap;html=1;dashed=1;fillColor=none;strokeWidth=2;" vertex="1" parent="1">
          <mxGeometry x="373" y="111" width="40" height="81" as="geometry" />
        </mxCell>
        <mxCell id="KBZhlKwedzXI5FQdUWbd-80" value="" style="rounded=0;whiteSpace=wrap;html=1;dashed=1;fillColor=none;strokeWidth=2;" vertex="1" parent="1">
          <mxGeometry x="425" y="152" width="40" height="81" as="geometry" />
        </mxCell>
        <mxCell id="KBZhlKwedzXI5FQdUWbd-82" value="" style="rounded=0;whiteSpace=wrap;html=1;dashed=1;fillColor=none;strokeWidth=2;" vertex="1" parent="1">
          <mxGeometry x="472" y="190" width="40" height="81" as="geometry" />
        </mxCell>
        <mxCell id="KBZhlKwedzXI5FQdUWbd-84" value="&lt;font size=&quot;1&quot; style=&quot;&quot;&gt;&lt;b style=&quot;font-size: 14px;&quot;&gt;(a)&lt;/b&gt;&lt;/font&gt;" style="text;strokeColor=none;align=center;fillColor=none;html=1;verticalAlign=middle;whiteSpace=wrap;rounded=0;" vertex="1" parent="1">
          <mxGeometry x="372" y="84" width="40" height="20" as="geometry" />
        </mxCell>
        <mxCell id="KBZhlKwedzXI5FQdUWbd-85" value="&lt;font size=&quot;1&quot; style=&quot;&quot;&gt;&lt;b style=&quot;font-size: 14px;&quot;&gt;(b)&lt;/b&gt;&lt;/font&gt;" style="text;strokeColor=none;align=center;fillColor=none;html=1;verticalAlign=middle;whiteSpace=wrap;rounded=0;" vertex="1" parent="1">
          <mxGeometry x="425" y="128" width="40" height="20" as="geometry" />
        </mxCell>
        <mxCell id="KBZhlKwedzXI5FQdUWbd-86" value="&lt;font size=&quot;1&quot; style=&quot;&quot;&gt;&lt;b style=&quot;font-size: 14px;&quot;&gt;(c)&lt;/b&gt;&lt;/font&gt;" style="text;strokeColor=none;align=center;fillColor=none;html=1;verticalAlign=middle;whiteSpace=wrap;rounded=0;" vertex="1" parent="1">
          <mxGeometry x="473" y="273" width="40" height="20" as="geometry" />
        </mxCell>
        <mxCell id="KBZhlKwedzXI5FQdUWbd-88" value="" style="endArrow=classic;html=1;rounded=0;strokeWidth=2;" edge="1" parent="1">
          <mxGeometry width="50" height="50" relative="1" as="geometry">
            <mxPoint x="51" y="460" as="sourcePoint" />
            <mxPoint x="200" y="460" as="targetPoint" />
          </mxGeometry>
        </mxCell>
        <mxCell id="KBZhlKwedzXI5FQdUWbd-89" value="" style="endArrow=classic;html=1;rounded=0;strokeWidth=2;" edge="1" parent="1">
          <mxGeometry width="50" height="50" relative="1" as="geometry">
            <mxPoint x="51" y="460" as="sourcePoint" />
            <mxPoint x="51" y="350" as="targetPoint" />
          </mxGeometry>
        </mxCell>
        <mxCell id="KBZhlKwedzXI5FQdUWbd-94" value="&lt;font face=&quot;Times New Roman&quot; style=&quot;font-size: 16px;&quot;&gt;f&lt;/font&gt;" style="text;strokeColor=none;align=center;fillColor=none;html=1;verticalAlign=middle;whiteSpace=wrap;rounded=0;" vertex="1" parent="1">
          <mxGeometry x="170" y="460" width="60" height="30" as="geometry" />
        </mxCell>
        <mxCell id="KBZhlKwedzXI5FQdUWbd-95" value="&lt;font face=&quot;Times New Roman&quot;&gt;Amp.&lt;/font&gt;" style="text;strokeColor=none;align=center;fillColor=none;html=1;verticalAlign=middle;whiteSpace=wrap;rounded=0;" vertex="1" parent="1">
          <mxGeometry x="10" y="320" width="60" height="30" as="geometry" />
        </mxCell>
        <mxCell id="KBZhlKwedzXI5FQdUWbd-96" value="" style="endArrow=classic;html=1;rounded=0;strokeWidth=2;" edge="1" parent="1">
          <mxGeometry width="50" height="50" relative="1" as="geometry">
            <mxPoint x="233" y="460" as="sourcePoint" />
            <mxPoint x="382" y="460" as="targetPoint" />
          </mxGeometry>
        </mxCell>
        <mxCell id="KBZhlKwedzXI5FQdUWbd-97" value="" style="endArrow=classic;html=1;rounded=0;strokeWidth=2;" edge="1" parent="1">
          <mxGeometry width="50" height="50" relative="1" as="geometry">
            <mxPoint x="233" y="460" as="sourcePoint" />
            <mxPoint x="233" y="350" as="targetPoint" />
          </mxGeometry>
        </mxCell>
        <mxCell id="KBZhlKwedzXI5FQdUWbd-98" value="&lt;font face=&quot;Times New Roman&quot; style=&quot;font-size: 16px;&quot;&gt;f&lt;/font&gt;" style="text;strokeColor=none;align=center;fillColor=none;html=1;verticalAlign=middle;whiteSpace=wrap;rounded=0;" vertex="1" parent="1">
          <mxGeometry x="352" y="460" width="60" height="30" as="geometry" />
        </mxCell>
        <mxCell id="KBZhlKwedzXI5FQdUWbd-99" value="&lt;font face=&quot;Times New Roman&quot;&gt;Amp.&lt;/font&gt;" style="text;strokeColor=none;align=center;fillColor=none;html=1;verticalAlign=middle;whiteSpace=wrap;rounded=0;" vertex="1" parent="1">
          <mxGeometry x="192" y="320" width="60" height="30" as="geometry" />
        </mxCell>
        <mxCell id="KBZhlKwedzXI5FQdUWbd-105" value="" style="endArrow=classic;html=1;rounded=0;strokeWidth=2;" edge="1" parent="1">
          <mxGeometry width="50" height="50" relative="1" as="geometry">
            <mxPoint x="423" y="460" as="sourcePoint" />
            <mxPoint x="572" y="460" as="targetPoint" />
          </mxGeometry>
        </mxCell>
        <mxCell id="KBZhlKwedzXI5FQdUWbd-106" value="" style="endArrow=classic;html=1;rounded=0;strokeWidth=2;" edge="1" parent="1">
          <mxGeometry width="50" height="50" relative="1" as="geometry">
            <mxPoint x="423" y="460" as="sourcePoint" />
            <mxPoint x="423" y="350" as="targetPoint" />
          </mxGeometry>
        </mxCell>
        <mxCell id="KBZhlKwedzXI5FQdUWbd-107" value="&lt;font face=&quot;Times New Roman&quot; style=&quot;font-size: 16px;&quot;&gt;f&lt;/font&gt;" style="text;strokeColor=none;align=center;fillColor=none;html=1;verticalAlign=middle;whiteSpace=wrap;rounded=0;" vertex="1" parent="1">
          <mxGeometry x="542" y="460" width="60" height="30" as="geometry" />
        </mxCell>
        <mxCell id="KBZhlKwedzXI5FQdUWbd-108" value="&lt;font face=&quot;Times New Roman&quot;&gt;Amp.&lt;/font&gt;" style="text;strokeColor=none;align=center;fillColor=none;html=1;verticalAlign=middle;whiteSpace=wrap;rounded=0;" vertex="1" parent="1">
          <mxGeometry x="382" y="320" width="60" height="30" as="geometry" />
        </mxCell>
        <mxCell id="KBZhlKwedzXI5FQdUWbd-109" value="&lt;font size=&quot;1&quot; style=&quot;&quot;&gt;&lt;b style=&quot;font-size: 14px;&quot;&gt;(a)&lt;/b&gt;&lt;/font&gt;" style="text;strokeColor=none;align=center;fillColor=none;html=1;verticalAlign=middle;whiteSpace=wrap;rounded=0;" vertex="1" parent="1">
          <mxGeometry x="99.5" y="474" width="40" height="20" as="geometry" />
        </mxCell>
        <mxCell id="KBZhlKwedzXI5FQdUWbd-110" value="" style="endArrow=none;html=1;rounded=1;strokeWidth=3;curved=0;strokeColor=#7094c2;" edge="1" parent="1">
          <mxGeometry width="50" height="50" relative="1" as="geometry">
            <mxPoint x="60.5" y="460" as="sourcePoint" />
            <mxPoint x="61" y="380" as="targetPoint" />
          </mxGeometry>
        </mxCell>
        <mxCell id="KBZhlKwedzXI5FQdUWbd-111" value="" style="endArrow=none;html=1;rounded=1;strokeWidth=3;curved=0;strokeColor=#B95450;" edge="1" parent="1">
          <mxGeometry width="50" height="50" relative="1" as="geometry">
            <mxPoint x="80" y="460" as="sourcePoint" />
            <mxPoint x="81" y="420" as="targetPoint" />
          </mxGeometry>
        </mxCell>
        <mxCell id="KBZhlKwedzXI5FQdUWbd-112" value="" style="endArrow=none;html=1;rounded=1;strokeWidth=3;curved=0;strokeColor=#B95450;" edge="1" parent="1">
          <mxGeometry width="50" height="50" relative="1" as="geometry">
            <mxPoint x="242" y="460" as="sourcePoint" />
            <mxPoint x="242.5" y="380" as="targetPoint" />
          </mxGeometry>
        </mxCell>
        <mxCell id="KBZhlKwedzXI5FQdUWbd-113" value="" style="endArrow=none;html=1;rounded=1;strokeWidth=3;curved=0;strokeColor=#6f94c2;" edge="1" parent="1">
          <mxGeometry width="50" height="50" relative="1" as="geometry">
            <mxPoint x="340" y="460" as="sourcePoint" />
            <mxPoint x="340" y="420" as="targetPoint" />
          </mxGeometry>
        </mxCell>
        <mxCell id="KBZhlKwedzXI5FQdUWbd-114" value="" style="endArrow=none;html=1;rounded=1;strokeWidth=3;curved=0;strokeColor=#81b365;" edge="1" parent="1">
          <mxGeometry width="50" height="50" relative="1" as="geometry">
            <mxPoint x="300.58" y="460" as="sourcePoint" />
            <mxPoint x="300.58" y="420" as="targetPoint" />
          </mxGeometry>
        </mxCell>
        <mxCell id="KBZhlKwedzXI5FQdUWbd-115" value="" style="endArrow=none;html=1;rounded=1;strokeWidth=3;curved=0;strokeColor=#81B365;" edge="1" parent="1">
          <mxGeometry width="50" height="50" relative="1" as="geometry">
            <mxPoint x="432" y="460" as="sourcePoint" />
            <mxPoint x="432.5" y="380" as="targetPoint" />
          </mxGeometry>
        </mxCell>
        <mxCell id="KBZhlKwedzXI5FQdUWbd-116" value="" style="endArrow=none;html=1;rounded=1;strokeWidth=3;curved=0;strokeColor=#B95450;" edge="1" parent="1">
          <mxGeometry width="50" height="50" relative="1" as="geometry">
            <mxPoint x="541.17" y="460" as="sourcePoint" />
            <mxPoint x="541.17" y="420" as="targetPoint" />
          </mxGeometry>
        </mxCell>
        <mxCell id="KBZhlKwedzXI5FQdUWbd-117" value="&lt;font size=&quot;1&quot; style=&quot;&quot;&gt;&lt;b style=&quot;font-size: 14px;&quot;&gt;(b)&lt;/b&gt;&lt;/font&gt;" style="text;strokeColor=none;align=center;fillColor=none;html=1;verticalAlign=middle;whiteSpace=wrap;rounded=0;" vertex="1" parent="1">
          <mxGeometry x="285" y="475" width="40" height="20" as="geometry" />
        </mxCell>
        <mxCell id="KBZhlKwedzXI5FQdUWbd-118" value="&lt;font size=&quot;1&quot; style=&quot;&quot;&gt;&lt;b style=&quot;font-size: 14px;&quot;&gt;(c)&lt;/b&gt;&lt;/font&gt;" style="text;strokeColor=none;align=center;fillColor=none;html=1;verticalAlign=middle;whiteSpace=wrap;rounded=0;" vertex="1" parent="1">
          <mxGeometry x="473" y="475" width="40" height="20" as="geometry" />
        </mxCell>
      </root>
    </mxGraphModel>
  </diagram>
</mxfile>
